<svg width="12" height="32" viewBox="0 0 12 32" fill="none" xmlns="http://www.w3.org/2000/svg">
<path d="M10.7902 32H0.952892C0.598035 32 0.4184 31.5727 0.666667 31.3191L3.9629 28.5138C4.4094 28.1338 4.66667 27.5771 4.66667 26.9908V20.4843C4.66667 20.007 4.49599 19.5455 4.18546 19.183L0.481208 14.8595C0.170679 14.4971 0 14.0355 0 13.5583V2C0 0.895431 0.895431 0 2 0H10C11.1046 0 12 0.895429 12 2V13.4817C12 14.0049 11.795 14.5072 11.429 14.881L7.23765 19.1616C6.87164 19.5353 6.66667 20.0377 6.66667 20.5608V26.9427C6.66667 27.5565 6.94849 28.1363 7.43114 28.5155L11 31.3191C11.3033 31.5256 11.1571 32 10.7902 32Z" fill="white"/>
</svg>
