<svg width="57" height="32" viewBox="0 0 57 32" fill="none" xmlns="http://www.w3.org/2000/svg">
<path fill-rule="evenodd" clip-rule="evenodd" d="M45.9529 32H55.7902C56.1571 32 56.3033 31.5256 56 31.3191L52.4311 28.5155C51.9485 28.1363 51.6667 27.5565 51.6667 26.9427V20.5608C51.6667 20.0377 51.8716 19.5353 52.2376 19.1616L56.429 14.881C56.795 14.5072 57 14.0049 57 13.4817V2C57 0.895429 56.1046 0 55 0H47C45.8954 0 45 0.895431 45 2V13.5583C45 14.0355 45.1707 14.4971 45.4812 14.8595L49.1855 19.183C49.496 19.5455 49.6667 20.007 49.6667 20.4843V26.9908C49.6667 27.5771 49.4094 28.1338 48.9629 28.5138L45.6667 31.3191C45.4184 31.5727 45.598 32 45.9529 32ZM0 12C0 10.8954 0.895431 10 2 10H15C16.1046 10 17 10.8954 17 12V30C17 31.1046 16.1046 32 15 32H2C0.89543 32 0 31.1046 0 30V12ZM33.8279 32H27.7674C26.847 32 26.0454 31.3718 25.8254 30.478L23.61 21.478C23.2997 20.2175 24.2539 19 25.552 19H36.3597C37.6851 19 38.6439 20.2658 38.285 21.5416L35.7531 30.5416C35.5105 31.4041 34.7238 32 33.8279 32Z" fill="white"/>
</svg>
